<mxfile host="app.diagrams.net" agent="Mozilla/5.0 (Windows NT 10.0; Win64; x64) AppleWebKit/537.36 (KHTML, like Gecko) Chrome/130.0.0.0 YaBrowser/24.12.0.0 Safari/537.36" version="25.0.3">
  <diagram id="TfFYSwIKwtB3wN-7_JOD" name="Обновленная схема">
    <mxGraphModel dx="1509" dy="799" grid="1" gridSize="10" guides="1" tooltips="1" connect="1" arrows="1" fold="1" page="1" pageScale="1" pageWidth="827" pageHeight="1169" math="0" shadow="0">
      <root>
        <mxCell id="0" />
        <mxCell id="1" parent="0" />
        <object placeholders="1" c4Name="InsureTech Prod" c4Type="SystemScopeBoundary" c4Application="Виртуальная машина" label="&lt;font style=&quot;font-size: 16px&quot;&gt;&lt;b&gt;&lt;div style=&quot;text-align: left&quot;&gt;%c4Name%&lt;/div&gt;&lt;/b&gt;&lt;/font&gt;&lt;div style=&quot;text-align: left&quot;&gt;[%c4Application%]&lt;/div&gt;" id="7ShiXB_MYXrsSbROgCbA-1">
          <mxCell style="rounded=1;fontSize=11;whiteSpace=wrap;html=1;dashed=1;arcSize=20;fillColor=none;strokeColor=#666666;fontColor=#333333;labelBackgroundColor=none;align=left;verticalAlign=bottom;labelBorderColor=none;spacingTop=0;spacing=10;dashPattern=8 4;metaEdit=1;rotatable=0;perimeter=rectanglePerimeter;noLabel=0;labelPadding=0;allowArrows=0;connectable=0;expand=0;recursiveResize=0;editable=1;pointerEvents=0;absoluteArcSize=1;points=[[0.25,0,0],[0.5,0,0],[0.75,0,0],[1,0.25,0],[1,0.5,0],[1,0.75,0],[0.75,1,0],[0.5,1,0],[0.25,1,0],[0,0.75,0],[0,0.5,0],[0,0.25,0]];" vertex="1" parent="1">
            <mxGeometry x="730" y="480" width="1110" height="1190" as="geometry" />
          </mxCell>
        </object>
        <object placeholders="1" c4Type="core-db" c4Container="Container" c4Technology="PostgreSQL" c4Description="БД используется для хранения тарифов страховых компаний, а также заявок клиентов на страховые продукты" label="&lt;font style=&quot;font-size: 16px&quot;&gt;&lt;b&gt;%c4Type%&lt;/b&gt;&lt;/font&gt;&lt;div&gt;[%c4Container%:&amp;nbsp;%c4Technology%]&lt;/div&gt;&lt;br&gt;&lt;div&gt;&lt;font style=&quot;font-size: 11px&quot;&gt;&lt;font color=&quot;#E6E6E6&quot;&gt;%c4Description%&lt;/font&gt;&lt;/div&gt;" id="7ShiXB_MYXrsSbROgCbA-2">
          <mxCell style="shape=cylinder3;size=5.9999511718749545;whiteSpace=wrap;html=1;boundedLbl=1;rounded=0;labelBackgroundColor=none;fillColor=#23A2D9;fontSize=12;fontColor=#ffffff;align=center;strokeColor=#0E7DAD;metaEdit=1;points=[[0.5,0,0],[1,0.25,0],[1,0.5,0],[1,0.75,0],[0.5,1,0],[0,0.75,0],[0,0.5,0],[0,0.25,0]];resizable=0;" vertex="1" parent="1">
            <mxGeometry x="770" y="1310" width="240" height="120" as="geometry" />
          </mxCell>
        </object>
        <object placeholders="1" c4Name="core-app" c4Type="Container" c4Technology="Kotlin, SpringBoot" c4Description="Монолитное приложение:&#xa;• отображает данные о доступных страховых продуктах&#xa;• оформляет новые страховки&#xa;• отображает информацию о купленных страховках" label="&lt;font style=&quot;font-size: 16px&quot;&gt;&lt;b&gt;%c4Name%&lt;/b&gt;&lt;/font&gt;&lt;div&gt;[%c4Type%: %c4Technology%]&lt;/div&gt;&lt;br&gt;&lt;div&gt;&lt;font style=&quot;font-size: 11px&quot;&gt;&lt;font color=&quot;#E6E6E6&quot;&gt;%c4Description%&lt;/font&gt;&lt;/div&gt;" id="7ShiXB_MYXrsSbROgCbA-3">
          <mxCell style="rounded=1;whiteSpace=wrap;html=1;fontSize=11;labelBackgroundColor=none;fillColor=#23A2D9;fontColor=#ffffff;align=center;arcSize=10;strokeColor=#0E7DAD;metaEdit=1;resizable=0;points=[[0.25,0,0],[0.5,0,0],[0.75,0,0],[1,0.25,0],[1,0.5,0],[1,0.75,0],[0.75,1,0],[0.5,1,0],[0.25,1,0],[0,0.75,0],[0,0.5,0],[0,0.25,0]];" vertex="1" parent="1">
            <mxGeometry x="770" y="780" width="240" height="120" as="geometry" />
          </mxCell>
        </object>
        <object placeholders="1" c4Type="InsureTech Web" c4Container="Container" c4Technology="JavaScript, React" c4Description="Веб-приложение InsureTech" label="&lt;font style=&quot;font-size: 16px&quot;&gt;&lt;b&gt;%c4Type%&lt;/b&gt;&lt;/font&gt;&lt;div&gt;[%c4Container%:&amp;nbsp;%c4Technology%]&lt;/div&gt;&lt;br&gt;&lt;div&gt;&lt;font style=&quot;font-size: 11px&quot;&gt;&lt;font color=&quot;#E6E6E6&quot;&gt;%c4Description%&lt;/font&gt;&lt;/div&gt;" id="7ShiXB_MYXrsSbROgCbA-4">
          <mxCell style="shape=mxgraph.c4.webBrowserContainer2;whiteSpace=wrap;html=1;boundedLbl=1;rounded=0;labelBackgroundColor=none;strokeColor=#118ACD;fillColor=#23A2D9;strokeColor=#118ACD;strokeColor2=#0E7DAD;fontSize=12;fontColor=#ffffff;align=center;metaEdit=1;points=[[0.5,0,0],[1,0.25,0],[1,0.5,0],[1,0.75,0],[0.5,1,0],[0,0.75,0],[0,0.5,0],[0,0.25,0]];resizable=0;" vertex="1" parent="1">
            <mxGeometry x="770" y="510" width="240" height="160" as="geometry" />
          </mxCell>
        </object>
        <object placeholders="1" c4Type="Relationship" c4Technology="REST" c4Description="1. Получения тарифов&#xa;2. Создание заявок на страховки" label="&lt;div style=&quot;text-align: left&quot;&gt;&lt;div style=&quot;text-align: center&quot;&gt;&lt;b&gt;%c4Description%&lt;/b&gt;&lt;/div&gt;&lt;div style=&quot;text-align: center&quot;&gt;[%c4Technology%]&lt;/div&gt;&lt;/div&gt;" id="7ShiXB_MYXrsSbROgCbA-5">
          <mxCell style="endArrow=blockThin;html=1;fontSize=10;fontColor=#404040;strokeWidth=1;endFill=1;strokeColor=#828282;elbow=vertical;metaEdit=1;endSize=14;startSize=14;jumpStyle=arc;jumpSize=16;rounded=0;edgeStyle=orthogonalEdgeStyle;" edge="1" parent="1" source="7ShiXB_MYXrsSbROgCbA-4" target="7ShiXB_MYXrsSbROgCbA-3">
            <mxGeometry width="240" relative="1" as="geometry">
              <mxPoint x="830" y="640" as="sourcePoint" />
              <mxPoint x="1070" y="640" as="targetPoint" />
              <Array as="points">
                <mxPoint x="890" y="510" />
              </Array>
            </mxGeometry>
          </mxCell>
        </object>
        <object placeholders="1" c4Type="Relationship" c4Technology="TCP" c4Description="Работа с данными" label="&lt;div style=&quot;text-align: left&quot;&gt;&lt;div style=&quot;text-align: center&quot;&gt;&lt;b&gt;%c4Description%&lt;/b&gt;&lt;/div&gt;&lt;div style=&quot;text-align: center&quot;&gt;[%c4Technology%]&lt;/div&gt;&lt;/div&gt;" id="7ShiXB_MYXrsSbROgCbA-6">
          <mxCell style="endArrow=blockThin;html=1;fontSize=10;fontColor=#404040;strokeWidth=1;endFill=1;strokeColor=#828282;elbow=vertical;metaEdit=1;endSize=14;startSize=14;jumpStyle=arc;jumpSize=16;rounded=0;edgeStyle=orthogonalEdgeStyle;" edge="1" parent="1" source="7ShiXB_MYXrsSbROgCbA-3" target="7ShiXB_MYXrsSbROgCbA-2">
            <mxGeometry width="240" relative="1" as="geometry">
              <mxPoint x="880" y="950" as="sourcePoint" />
              <mxPoint x="1120" y="950" as="targetPoint" />
            </mxGeometry>
          </mxCell>
        </object>
        <object placeholders="1" c4Name="Системы партнеров" c4Type="Software System" c4Description="Системы партнеров, интегрирующие страховые услуги в свои продукты" label="&lt;font style=&quot;font-size: 16px&quot;&gt;&lt;b&gt;%c4Name%&lt;/b&gt;&lt;/font&gt;&lt;div&gt;[%c4Type%]&lt;/div&gt;&lt;br&gt;&lt;div&gt;&lt;font style=&quot;font-size: 11px&quot;&gt;&lt;font color=&quot;#cccccc&quot;&gt;%c4Description%&lt;/font&gt;&lt;/div&gt;" id="7ShiXB_MYXrsSbROgCbA-7">
          <mxCell style="rounded=1;whiteSpace=wrap;html=1;labelBackgroundColor=none;fillColor=#8C8496;fontColor=#ffffff;align=center;arcSize=10;strokeColor=#736782;metaEdit=1;resizable=0;points=[[0.25,0,0],[0.5,0,0],[0.75,0,0],[1,0.25,0],[1,0.5,0],[1,0.75,0],[0.75,1,0],[0.5,1,0],[0.25,1,0],[0,0.75,0],[0,0.5,0],[0,0.25,0]];" vertex="1" parent="1">
            <mxGeometry x="320" y="865" width="240" height="120" as="geometry" />
          </mxCell>
        </object>
        <object placeholders="1" c4Name="Системы партнеров" c4Type="Software System" c4Description="Системы партнеров, интегрирующие страховые услуги в свои продукты" label="&lt;font style=&quot;font-size: 16px&quot;&gt;&lt;b&gt;%c4Name%&lt;/b&gt;&lt;/font&gt;&lt;div&gt;[%c4Type%]&lt;/div&gt;&lt;br&gt;&lt;div&gt;&lt;font style=&quot;font-size: 11px&quot;&gt;&lt;font color=&quot;#cccccc&quot;&gt;%c4Description%&lt;/font&gt;&lt;/div&gt;" id="7ShiXB_MYXrsSbROgCbA-8">
          <mxCell style="rounded=1;whiteSpace=wrap;html=1;labelBackgroundColor=none;fillColor=#8C8496;fontColor=#ffffff;align=center;arcSize=10;strokeColor=#736782;metaEdit=1;resizable=0;points=[[0.25,0,0],[0.5,0,0],[0.75,0,0],[1,0.25,0],[1,0.5,0],[1,0.75,0],[0.75,1,0],[0.5,1,0],[0.25,1,0],[0,0.75,0],[0,0.5,0],[0,0.25,0]];" vertex="1" parent="1">
            <mxGeometry x="330" y="875" width="240" height="120" as="geometry" />
          </mxCell>
        </object>
        <object placeholders="1" c4Name="Системы партнёров" c4Type="Software System" c4Description="Системы партнёров, интегрирующие страховые услуги в свои продукты" label="&lt;font style=&quot;font-size: 16px&quot;&gt;&lt;b&gt;%c4Name%&lt;/b&gt;&lt;/font&gt;&lt;div&gt;[%c4Type%]&lt;/div&gt;&lt;br&gt;&lt;div&gt;&lt;font style=&quot;font-size: 11px&quot;&gt;&lt;font color=&quot;#cccccc&quot;&gt;%c4Description%&lt;/font&gt;&lt;/div&gt;" id="7ShiXB_MYXrsSbROgCbA-9">
          <mxCell style="rounded=1;whiteSpace=wrap;html=1;labelBackgroundColor=none;fillColor=#8C8496;fontColor=#ffffff;align=center;arcSize=10;strokeColor=#736782;metaEdit=1;resizable=0;points=[[0.25,0,0],[0.5,0,0],[0.75,0,0],[1,0.25,0],[1,0.5,0],[1,0.75,0],[0.75,1,0],[0.5,1,0],[0.25,1,0],[0,0.75,0],[0,0.5,0],[0,0.25,0]];" vertex="1" parent="1">
            <mxGeometry x="340" y="885" width="240" height="120" as="geometry" />
          </mxCell>
        </object>
        <object placeholders="1" c4Type="Relationship" c4Technology="REST" c4Description="Оформление страховок" label="&lt;div style=&quot;text-align: left&quot;&gt;&lt;div style=&quot;text-align: center&quot;&gt;&lt;b&gt;%c4Description%&lt;/b&gt;&lt;/div&gt;&lt;div style=&quot;text-align: center&quot;&gt;[%c4Technology%]&lt;/div&gt;&lt;/div&gt;" id="7ShiXB_MYXrsSbROgCbA-10">
          <mxCell style="endArrow=blockThin;html=1;fontSize=10;fontColor=#404040;strokeWidth=1;endFill=1;strokeColor=#828282;elbow=vertical;metaEdit=1;endSize=14;startSize=14;jumpStyle=arc;jumpSize=16;rounded=0;edgeStyle=orthogonalEdgeStyle;" edge="1" parent="1" source="7ShiXB_MYXrsSbROgCbA-9" target="7ShiXB_MYXrsSbROgCbA-3">
            <mxGeometry x="-0.2075" width="240" relative="1" as="geometry">
              <mxPoint x="330" y="765" as="sourcePoint" />
              <mxPoint x="770" y="945" as="targetPoint" />
              <Array as="points">
                <mxPoint x="650" y="945" />
                <mxPoint x="650" y="870" />
              </Array>
              <mxPoint as="offset" />
            </mxGeometry>
          </mxCell>
        </object>
        <object placeholders="1" c4Name="Системы страховых компаний" c4Type="Software System" c4Description="Системы страховых компаний, предоставляющие API для получения актуальных тарифов, андерайтинга и оформления страховых продуктов" label="&lt;font style=&quot;font-size: 16px&quot;&gt;&lt;b&gt;%c4Name%&lt;/b&gt;&lt;/font&gt;&lt;div&gt;[%c4Type%]&lt;/div&gt;&lt;br&gt;&lt;div&gt;&lt;font style=&quot;font-size: 11px&quot;&gt;&lt;font color=&quot;#cccccc&quot;&gt;%c4Description%&lt;/font&gt;&lt;/div&gt;" id="7ShiXB_MYXrsSbROgCbA-11">
          <mxCell style="rounded=1;whiteSpace=wrap;html=1;labelBackgroundColor=none;fillColor=#8C8496;fontColor=#ffffff;align=center;arcSize=10;strokeColor=#736782;metaEdit=1;resizable=0;points=[[0.25,0,0],[0.5,0,0],[0.75,0,0],[1,0.25,0],[1,0.5,0],[1,0.75,0],[0.75,1,0],[0.5,1,0],[0.25,1,0],[0,0.75,0],[0,0.5,0],[0,0.25,0]];" vertex="1" parent="1">
            <mxGeometry x="1900" y="890" width="240" height="120" as="geometry" />
          </mxCell>
        </object>
        <object placeholders="1" c4Name="Системы страховых компаний" c4Type="Software System" c4Description="Системы страховых компаний, предоставляющие API для получения актуальных тарифов, андерайтинга и оформления страховых продуктов" label="&lt;font style=&quot;font-size: 16px&quot;&gt;&lt;b&gt;%c4Name%&lt;/b&gt;&lt;/font&gt;&lt;div&gt;[%c4Type%]&lt;/div&gt;&lt;br&gt;&lt;div&gt;&lt;font style=&quot;font-size: 11px&quot;&gt;&lt;font color=&quot;#cccccc&quot;&gt;%c4Description%&lt;/font&gt;&lt;/div&gt;" id="7ShiXB_MYXrsSbROgCbA-12">
          <mxCell style="rounded=1;whiteSpace=wrap;html=1;labelBackgroundColor=none;fillColor=#8C8496;fontColor=#ffffff;align=center;arcSize=10;strokeColor=#736782;metaEdit=1;resizable=0;points=[[0.25,0,0],[0.5,0,0],[0.75,0,0],[1,0.25,0],[1,0.5,0],[1,0.75,0],[0.75,1,0],[0.5,1,0],[0.25,1,0],[0,0.75,0],[0,0.5,0],[0,0.25,0]];" vertex="1" parent="1">
            <mxGeometry x="1910" y="900" width="240" height="120" as="geometry" />
          </mxCell>
        </object>
        <object placeholders="1" c4Name="Системы страховых компаний" c4Type="Software System" c4Description="Предоставляют API для получения актуальных тарифов, андерайтинга и оформления страховых продуктов" label="&lt;font style=&quot;font-size: 16px&quot;&gt;&lt;b&gt;%c4Name%&lt;/b&gt;&lt;/font&gt;&lt;div&gt;[%c4Type%]&lt;/div&gt;&lt;br&gt;&lt;div&gt;&lt;font style=&quot;font-size: 11px&quot;&gt;&lt;font color=&quot;#cccccc&quot;&gt;%c4Description%&lt;/font&gt;&lt;/div&gt;" id="7ShiXB_MYXrsSbROgCbA-13">
          <mxCell style="rounded=1;whiteSpace=wrap;html=1;labelBackgroundColor=none;fillColor=#8C8496;fontColor=#ffffff;align=center;arcSize=9;strokeColor=#736782;metaEdit=1;resizable=0;points=[[0.25,0,0],[0.5,0,0],[0.75,0,0],[1,0.25,0],[1,0.5,0],[1,0.75,0],[0.75,1,0],[0.5,1,0],[0.25,1,0],[0,0.75,0],[0,0.5,0],[0,0.25,0]];" vertex="1" parent="1">
            <mxGeometry x="1920" y="910" width="240" height="120" as="geometry" />
          </mxCell>
        </object>
        <object placeholders="1" c4Name="ins-product-aggregator" c4Type="Container" c4Technology="Kotlin, SpringBoot" c4Description="Сервис для интеграции со страховыми компаниями с целью получения информации по страховым продуктам. Предоставляет единый API для core-app" label="&lt;font style=&quot;font-size: 16px&quot;&gt;&lt;b&gt;%c4Name%&lt;/b&gt;&lt;/font&gt;&lt;div&gt;[%c4Type%: %c4Technology%]&lt;/div&gt;&lt;br&gt;&lt;div&gt;&lt;font style=&quot;font-size: 11px&quot;&gt;&lt;font color=&quot;#E6E6E6&quot;&gt;%c4Description%&lt;/font&gt;&lt;/div&gt;" id="7ShiXB_MYXrsSbROgCbA-14">
          <mxCell style="rounded=1;whiteSpace=wrap;html=1;fontSize=11;labelBackgroundColor=none;fillColor=#23A2D9;fontColor=#ffffff;align=center;arcSize=10;strokeColor=#0E7DAD;metaEdit=1;resizable=0;points=[[0.25,0,0],[0.5,0,0],[0.75,0,0],[1,0.25,0],[1,0.5,0],[1,0.75,0],[0.75,1,0],[0.5,1,0],[0.25,1,0],[0,0.75,0],[0,0.5,0],[0,0.25,0]];" vertex="1" parent="1">
            <mxGeometry x="1414" y="780" width="240" height="120" as="geometry" />
          </mxCell>
        </object>
        <object placeholders="1" c4Type="Relationship" c4Technology="REST / SOAP / GraphQL" c4Description="Получение информации &#xa;по продуктам и тарифам" label="&lt;div style=&quot;text-align: left&quot;&gt;&lt;div style=&quot;text-align: center&quot;&gt;&lt;b&gt;%c4Description%&lt;/b&gt;&lt;/div&gt;&lt;div style=&quot;text-align: center&quot;&gt;[%c4Technology%]&lt;/div&gt;&lt;/div&gt;" id="7ShiXB_MYXrsSbROgCbA-15">
          <mxCell style="endArrow=blockThin;html=1;fontSize=10;fontColor=#404040;strokeWidth=1;endFill=1;strokeColor=#828282;elbow=vertical;metaEdit=1;endSize=14;startSize=14;jumpStyle=arc;jumpSize=16;rounded=0;edgeStyle=orthogonalEdgeStyle;" edge="1" parent="1" source="7ShiXB_MYXrsSbROgCbA-14" target="7ShiXB_MYXrsSbROgCbA-11">
            <mxGeometry x="-0.2143" width="240" relative="1" as="geometry">
              <mxPoint x="1150" y="740" as="sourcePoint" />
              <mxPoint x="1390" y="740" as="targetPoint" />
              <mxPoint as="offset" />
              <Array as="points">
                <mxPoint x="1740" y="840" />
                <mxPoint x="1740" y="930" />
              </Array>
            </mxGeometry>
          </mxCell>
        </object>
        <object placeholders="1" c4Type="Relationship" c4Technology="REST" c4Description="Получение информации &#xa;по продуктам и тарифам" label="&lt;div style=&quot;text-align: left&quot;&gt;&lt;div style=&quot;text-align: center&quot;&gt;&lt;b&gt;%c4Description%&lt;/b&gt;&lt;/div&gt;&lt;div style=&quot;text-align: center&quot;&gt;[%c4Technology%]&lt;/div&gt;&lt;/div&gt;" id="7ShiXB_MYXrsSbROgCbA-16">
          <mxCell style="endArrow=blockThin;html=1;fontSize=10;fontColor=#404040;strokeWidth=1;endFill=1;strokeColor=#828282;elbow=vertical;metaEdit=1;endSize=14;startSize=14;jumpStyle=arc;jumpSize=16;rounded=0;edgeStyle=orthogonalEdgeStyle;" edge="1" parent="1" source="7ShiXB_MYXrsSbROgCbA-3" target="7ShiXB_MYXrsSbROgCbA-14">
            <mxGeometry width="240" relative="1" as="geometry">
              <mxPoint x="1470" y="850" as="sourcePoint" />
              <mxPoint x="1650" y="850" as="targetPoint" />
              <mxPoint x="-1" as="offset" />
              <Array as="points">
                <mxPoint x="1100" y="840" />
                <mxPoint x="1100" y="840" />
              </Array>
            </mxGeometry>
          </mxCell>
        </object>
        <object placeholders="1" c4Name="ins-comp-settlement" c4Type="Container" c4Technology="Kotlin, SpringBoot" c4Description="Сервис для осуществления взаиморасчётов со страховыми компаниями" label="&lt;font style=&quot;font-size: 16px&quot;&gt;&lt;b&gt;%c4Name%&lt;/b&gt;&lt;/font&gt;&lt;div&gt;[%c4Type%: %c4Technology%]&lt;/div&gt;&lt;br&gt;&lt;div&gt;&lt;font style=&quot;font-size: 11px&quot;&gt;&lt;font color=&quot;#E6E6E6&quot;&gt;%c4Description%&lt;/font&gt;&lt;/div&gt;" id="7ShiXB_MYXrsSbROgCbA-17">
          <mxCell style="rounded=1;whiteSpace=wrap;html=1;fontSize=11;labelBackgroundColor=none;fillColor=#23A2D9;fontColor=#ffffff;align=center;arcSize=10;strokeColor=#0E7DAD;metaEdit=1;resizable=0;points=[[0.25,0,0],[0.5,0,0],[0.75,0,0],[1,0.25,0],[1,0.5,0],[1,0.75,0],[0.75,1,0],[0.5,1,0],[0.25,1,0],[0,0.75,0],[0,0.5,0],[0,0.25,0]];" vertex="1" parent="1">
            <mxGeometry x="1414" y="1320" width="240" height="120" as="geometry" />
          </mxCell>
        </object>
        <object placeholders="1" c4Name="Клиент" c4Type="Person" c4Description="Клиент" label="&lt;font style=&quot;font-size: 16px&quot;&gt;&lt;b&gt;%c4Name%&lt;/b&gt;&lt;/font&gt;&lt;div&gt;[%c4Type%]&lt;/div&gt;&lt;br&gt;&lt;div&gt;&lt;font style=&quot;font-size: 11px&quot;&gt;&lt;font color=&quot;#cccccc&quot;&gt;%c4Description%&lt;/font&gt;&lt;/div&gt;" id="7ShiXB_MYXrsSbROgCbA-18">
          <mxCell style="html=1;fontSize=11;dashed=0;whiteSpace=wrap;fillColor=#083F75;strokeColor=#06315C;fontColor=#ffffff;shape=mxgraph.c4.person2;align=center;metaEdit=1;points=[[0.5,0,0],[1,0.5,0],[1,0.75,0],[0.75,1,0],[0.5,1,0],[0.25,1,0],[0,0.75,0],[0,0.5,0]];resizable=0;" vertex="1" parent="1">
            <mxGeometry x="790" y="270" width="200" height="180" as="geometry" />
          </mxCell>
        </object>
        <object placeholders="1" c4Type="Relationship" id="7ShiXB_MYXrsSbROgCbA-19">
          <mxCell style="endArrow=blockThin;html=1;fontSize=10;fontColor=#404040;strokeWidth=1;endFill=1;strokeColor=#828282;elbow=vertical;metaEdit=1;endSize=14;startSize=14;jumpStyle=arc;jumpSize=16;rounded=0;edgeStyle=orthogonalEdgeStyle;" edge="1" parent="1" source="7ShiXB_MYXrsSbROgCbA-18" target="7ShiXB_MYXrsSbROgCbA-4">
            <mxGeometry width="240" relative="1" as="geometry">
              <mxPoint x="930" y="360" as="sourcePoint" />
              <mxPoint x="1170" y="360" as="targetPoint" />
            </mxGeometry>
          </mxCell>
        </object>
        <object placeholders="1" c4Type="ins-comp-settlement-db" c4Container="Container" c4Technology="PostgreSQL" c4Description="БД используется для хранения данных об оформленных страховках и условиях взаиморасчётов с клиентами" label="&lt;font style=&quot;font-size: 16px&quot;&gt;&lt;b&gt;%c4Type%&lt;/b&gt;&lt;/font&gt;&lt;div&gt;[%c4Container%:&amp;nbsp;%c4Technology%]&lt;/div&gt;&lt;br&gt;&lt;div&gt;&lt;font style=&quot;font-size: 11px&quot;&gt;&lt;font color=&quot;#E6E6E6&quot;&gt;%c4Description%&lt;/font&gt;&lt;/div&gt;" id="7ShiXB_MYXrsSbROgCbA-20">
          <mxCell style="shape=cylinder3;size=8.50981588924617;whiteSpace=wrap;html=1;boundedLbl=1;rounded=0;labelBackgroundColor=none;fillColor=#23A2D9;fontSize=12;fontColor=#ffffff;align=center;strokeColor=#0E7DAD;metaEdit=1;points=[[0.5,0,0],[1,0.25,0],[1,0.5,0],[1,0.75,0],[0.5,1,0],[0,0.75,0],[0,0.5,0],[0,0.25,0]];resizable=0;" vertex="1" parent="1">
            <mxGeometry x="1340" y="1500" width="240" height="120" as="geometry" />
          </mxCell>
        </object>
        <object placeholders="1" c4Type="Relationship" c4Technology="TCP" c4Description="Работа с данными" label="&lt;div style=&quot;text-align: left&quot;&gt;&lt;div style=&quot;text-align: center&quot;&gt;&lt;b&gt;%c4Description%&lt;/b&gt;&lt;/div&gt;&lt;div style=&quot;text-align: center&quot;&gt;[%c4Technology%]&lt;/div&gt;&lt;/div&gt;" id="7ShiXB_MYXrsSbROgCbA-21">
          <mxCell style="endArrow=blockThin;html=1;fontSize=10;fontColor=#404040;strokeWidth=1;endFill=1;strokeColor=#828282;elbow=vertical;metaEdit=1;endSize=14;startSize=14;jumpStyle=arc;jumpSize=16;rounded=0;edgeStyle=orthogonalEdgeStyle;" edge="1" parent="1" source="7ShiXB_MYXrsSbROgCbA-17" target="7ShiXB_MYXrsSbROgCbA-20">
            <mxGeometry width="240" relative="1" as="geometry">
              <mxPoint x="1020" y="1150" as="sourcePoint" />
              <mxPoint x="1020" y="1270" as="targetPoint" />
            </mxGeometry>
          </mxCell>
        </object>
        <object placeholders="1" c4Type="Relationship" c4Technology="REST / SOAP / GraphQL" c4Description="Передача данных для взаиморасчётов" label="&lt;div style=&quot;text-align: left&quot;&gt;&lt;div style=&quot;text-align: center&quot;&gt;&lt;b&gt;%c4Description%&lt;/b&gt;&lt;/div&gt;&lt;div style=&quot;text-align: center&quot;&gt;[%c4Technology%]&lt;/div&gt;&lt;/div&gt;" id="7ShiXB_MYXrsSbROgCbA-22">
          <mxCell style="endArrow=blockThin;html=1;fontSize=10;fontColor=#404040;strokeWidth=1;endFill=1;strokeColor=#828282;elbow=vertical;metaEdit=1;endSize=14;startSize=14;jumpStyle=arc;jumpSize=16;rounded=0;edgeStyle=orthogonalEdgeStyle;entryX=0;entryY=0.795;entryDx=0;entryDy=0;entryPerimeter=0;" edge="1" parent="1" source="7ShiXB_MYXrsSbROgCbA-17" target="7ShiXB_MYXrsSbROgCbA-11">
            <mxGeometry x="-0.2207" width="240" relative="1" as="geometry">
              <mxPoint x="1440" y="850" as="sourcePoint" />
              <mxPoint x="1630" y="940" as="targetPoint" />
              <mxPoint as="offset" />
              <Array as="points">
                <mxPoint x="1740" y="1080" />
                <mxPoint x="1740" y="985" />
              </Array>
            </mxGeometry>
          </mxCell>
        </object>
        <object placeholders="1" c4Type="Relationship" c4Technology="REST" c4Description="Получение информации &#xa;по продуктам и тарифам" label="&lt;div style=&quot;text-align: left&quot;&gt;&lt;div style=&quot;text-align: center&quot;&gt;&lt;b&gt;%c4Description%&lt;/b&gt;&lt;/div&gt;&lt;div style=&quot;text-align: center&quot;&gt;[%c4Technology%]&lt;/div&gt;&lt;/div&gt;" id="7ShiXB_MYXrsSbROgCbA-23">
          <mxCell style="endArrow=blockThin;html=1;fontSize=10;fontColor=#404040;strokeWidth=1;endFill=1;strokeColor=#828282;elbow=vertical;metaEdit=1;endSize=14;startSize=14;jumpStyle=arc;jumpSize=16;rounded=0;edgeStyle=orthogonalEdgeStyle;" edge="1" parent="1" source="7ShiXB_MYXrsSbROgCbA-17" target="7ShiXB_MYXrsSbROgCbA-14">
            <mxGeometry width="240" relative="1" as="geometry">
              <mxPoint x="1170" y="820" as="sourcePoint" />
              <mxPoint x="1350" y="820" as="targetPoint" />
              <mxPoint x="-1" as="offset" />
              <Array as="points" />
            </mxGeometry>
          </mxCell>
        </object>
        <object placeholders="1" c4Type="Relationship" c4Technology="REST" c4Description="Получение информации &#xa;об оформленных страховках" label="&lt;div style=&quot;text-align: left&quot;&gt;&lt;div style=&quot;text-align: center&quot;&gt;&lt;b&gt;%c4Description%&lt;/b&gt;&lt;/div&gt;&lt;div style=&quot;text-align: center&quot;&gt;[%c4Technology%]&lt;/div&gt;&lt;/div&gt;" id="7ShiXB_MYXrsSbROgCbA-24">
          <mxCell style="endArrow=blockThin;html=1;fontSize=10;fontColor=#404040;strokeWidth=1;endFill=1;strokeColor=#828282;elbow=vertical;metaEdit=1;endSize=14;startSize=14;jumpStyle=arc;jumpSize=16;rounded=0;edgeStyle=orthogonalEdgeStyle;exitX=0;exitY=0.5;exitDx=0;exitDy=0;exitPerimeter=0;" edge="1" parent="1" source="7ShiXB_MYXrsSbROgCbA-17" target="7ShiXB_MYXrsSbROgCbA-3">
            <mxGeometry x="-0.0122" width="240" relative="1" as="geometry">
              <mxPoint x="1020" y="820" as="sourcePoint" />
              <mxPoint x="1200" y="820" as="targetPoint" />
              <mxPoint as="offset" />
              <Array as="points">
                <mxPoint x="1060" y="1380" />
                <mxPoint x="1060" y="880" />
              </Array>
            </mxGeometry>
          </mxCell>
        </object>
        <object placeholders="1" c4Name="Платёжный сервис" c4Type="Software System" c4Description="Внешний платёжный сервис, через который осуществляется оплата страховок. Деньги уходят на счета страховых компаний" label="&lt;font style=&quot;font-size: 16px&quot;&gt;&lt;b&gt;%c4Name%&lt;/b&gt;&lt;/font&gt;&lt;div&gt;[%c4Type%]&lt;/div&gt;&lt;br&gt;&lt;div&gt;&lt;font style=&quot;font-size: 11px&quot;&gt;&lt;font color=&quot;#cccccc&quot;&gt;%c4Description%&lt;/font&gt;&lt;/div&gt;" id="7ShiXB_MYXrsSbROgCbA-25">
          <mxCell style="rounded=1;whiteSpace=wrap;html=1;labelBackgroundColor=none;fillColor=#8C8496;fontColor=#ffffff;align=center;arcSize=10;strokeColor=#736782;metaEdit=1;resizable=0;points=[[0.25,0,0],[0.5,0,0],[0.75,0,0],[1,0.25,0],[1,0.5,0],[1,0.75,0],[0.75,1,0],[0.5,1,0],[0.25,1,0],[0,0.75,0],[0,0.5,0],[0,0.25,0]];" vertex="1" parent="1">
            <mxGeometry x="320" y="670" width="240" height="120" as="geometry" />
          </mxCell>
        </object>
        <object placeholders="1" c4Type="Relationship" c4Technology="HTTP" c4Description="Проведение оплаты &#xa;за страховки" label="&lt;div style=&quot;text-align: left&quot;&gt;&lt;div style=&quot;text-align: center&quot;&gt;&lt;b&gt;%c4Description%&lt;/b&gt;&lt;/div&gt;&lt;div style=&quot;text-align: center&quot;&gt;[%c4Technology%]&lt;/div&gt;&lt;/div&gt;" id="7ShiXB_MYXrsSbROgCbA-26">
          <mxCell style="endArrow=blockThin;html=1;fontSize=10;fontColor=#404040;strokeWidth=1;endFill=1;strokeColor=#828282;elbow=vertical;metaEdit=1;endSize=14;startSize=14;jumpStyle=arc;jumpSize=16;rounded=0;edgeStyle=orthogonalEdgeStyle;" edge="1" parent="1" source="7ShiXB_MYXrsSbROgCbA-3" target="7ShiXB_MYXrsSbROgCbA-25">
            <mxGeometry x="0.1034" width="240" relative="1" as="geometry">
              <mxPoint x="590" y="955" as="sourcePoint" />
              <mxPoint x="780" y="880" as="targetPoint" />
              <Array as="points">
                <mxPoint x="650" y="810" />
                <mxPoint x="650" y="730" />
              </Array>
              <mxPoint as="offset" />
            </mxGeometry>
          </mxCell>
        </object>
        <object placeholders="1" c4Type="Relationship" c4Technology="HTTP" c4Description="Проведение оплаты &#xa;за страховки (redirect)" label="&lt;div style=&quot;text-align: left&quot;&gt;&lt;div style=&quot;text-align: center&quot;&gt;&lt;b&gt;%c4Description%&lt;/b&gt;&lt;/div&gt;&lt;div style=&quot;text-align: center&quot;&gt;[%c4Technology%]&lt;/div&gt;&lt;/div&gt;" id="7ShiXB_MYXrsSbROgCbA-27">
          <mxCell style="endArrow=blockThin;html=1;fontSize=10;fontColor=#404040;strokeWidth=1;endFill=1;strokeColor=#828282;elbow=vertical;metaEdit=1;endSize=14;startSize=14;jumpStyle=arc;jumpSize=16;rounded=0;edgeStyle=orthogonalEdgeStyle;" edge="1" parent="1" source="7ShiXB_MYXrsSbROgCbA-4" target="7ShiXB_MYXrsSbROgCbA-25">
            <mxGeometry x="0.1034" width="240" relative="1" as="geometry">
              <mxPoint x="780" y="820" as="sourcePoint" />
              <mxPoint x="570" y="740" as="targetPoint" />
              <Array as="points">
                <mxPoint x="420" y="580" />
              </Array>
              <mxPoint as="offset" />
            </mxGeometry>
          </mxCell>
        </object>
        <object placeholders="1" c4Name="client-info" c4Type="Container" c4Technology="Kotlin, SpringBoot" c4Description="Сервис для учёта клиентских данных" label="&lt;font style=&quot;font-size: 16px&quot;&gt;&lt;b&gt;%c4Name%&lt;/b&gt;&lt;/font&gt;&lt;div&gt;[%c4Type%: %c4Technology%]&lt;/div&gt;&lt;br&gt;&lt;div&gt;&lt;font style=&quot;font-size: 11px&quot;&gt;&lt;font color=&quot;#E6E6E6&quot;&gt;%c4Description%&lt;/font&gt;&lt;/div&gt;" id="7ShiXB_MYXrsSbROgCbA-28">
          <mxCell style="rounded=1;whiteSpace=wrap;html=1;fontSize=11;labelBackgroundColor=none;fillColor=#23A2D9;fontColor=#ffffff;align=center;arcSize=10;strokeColor=#0E7DAD;metaEdit=1;resizable=0;points=[[0.25,0,0],[0.5,0,0],[0.75,0,0],[1,0.25,0],[1,0.5,0],[1,0.75,0],[0.75,1,0],[0.5,1,0],[0.25,1,0],[0,0.75,0],[0,0.5,0],[0,0.25,0]];" vertex="1" parent="1">
            <mxGeometry x="1190" y="530" width="240" height="120" as="geometry" />
          </mxCell>
        </object>
        <object placeholders="1" c4Type="ins-comp-settlement-db" c4Container="Container" c4Technology="PostgreSQL" c4Description="БД используется для хранения данных клиентов: ФИО, телефон, паспорт и др. Информация необходима для оформления страховок" label="&lt;font style=&quot;font-size: 16px&quot;&gt;&lt;b&gt;%c4Type%&lt;/b&gt;&lt;/font&gt;&lt;div&gt;[%c4Container%:&amp;nbsp;%c4Technology%]&lt;/div&gt;&lt;br&gt;&lt;div&gt;&lt;font style=&quot;font-size: 11px&quot;&gt;&lt;font color=&quot;#E6E6E6&quot;&gt;%c4Description%&lt;/font&gt;&lt;/div&gt;" id="7ShiXB_MYXrsSbROgCbA-29">
          <mxCell style="shape=cylinder3;size=6.172056136592715;whiteSpace=wrap;html=1;boundedLbl=1;rounded=0;labelBackgroundColor=none;fillColor=#23A2D9;fontSize=12;fontColor=#ffffff;align=center;strokeColor=#0E7DAD;metaEdit=1;points=[[0.5,0,0],[1,0.25,0],[1,0.5,0],[1,0.75,0],[0.5,1,0],[0,0.75,0],[0,0.5,0],[0,0.25,0]];resizable=0;" vertex="1" parent="1">
            <mxGeometry x="1570" y="530" width="240" height="120" as="geometry" />
          </mxCell>
        </object>
        <object placeholders="1" c4Type="Relationship" c4Technology="TCP" c4Description="Работа с данными" label="&lt;div style=&quot;text-align: left&quot;&gt;&lt;div style=&quot;text-align: center&quot;&gt;&lt;b&gt;%c4Description%&lt;/b&gt;&lt;/div&gt;&lt;div style=&quot;text-align: center&quot;&gt;[%c4Technology%]&lt;/div&gt;&lt;/div&gt;" id="7ShiXB_MYXrsSbROgCbA-30">
          <mxCell style="endArrow=blockThin;html=1;fontSize=10;fontColor=#404040;strokeWidth=1;endFill=1;strokeColor=#828282;elbow=vertical;metaEdit=1;endSize=14;startSize=14;jumpStyle=arc;jumpSize=16;rounded=0;edgeStyle=orthogonalEdgeStyle;" edge="1" parent="1" source="7ShiXB_MYXrsSbROgCbA-28" target="7ShiXB_MYXrsSbROgCbA-29">
            <mxGeometry x="-0.1429" width="240" relative="1" as="geometry">
              <mxPoint x="1320" y="1150" as="sourcePoint" />
              <mxPoint x="1320" y="1270" as="targetPoint" />
              <mxPoint as="offset" />
            </mxGeometry>
          </mxCell>
        </object>
        <object placeholders="1" c4Type="Relationship" c4Technology="REST" c4Description="Получение/сохранение информации о клиентах" label="&lt;div style=&quot;text-align: left&quot;&gt;&lt;div style=&quot;text-align: center&quot;&gt;&lt;b&gt;%c4Description%&lt;/b&gt;&lt;/div&gt;&lt;div style=&quot;text-align: center&quot;&gt;[%c4Technology%]&lt;/div&gt;&lt;/div&gt;" id="7ShiXB_MYXrsSbROgCbA-31">
          <mxCell style="endArrow=blockThin;html=1;fontSize=10;fontColor=#404040;strokeWidth=1;endFill=1;strokeColor=#828282;elbow=vertical;metaEdit=1;endSize=14;startSize=14;jumpStyle=arc;jumpSize=16;rounded=0;edgeStyle=orthogonalEdgeStyle;" edge="1" parent="1" source="7ShiXB_MYXrsSbROgCbA-3" target="7ShiXB_MYXrsSbROgCbA-28">
            <mxGeometry width="240" relative="1" as="geometry">
              <mxPoint x="1020" y="850" as="sourcePoint" />
              <mxPoint x="1200" y="850" as="targetPoint" />
              <mxPoint x="-1" as="offset" />
              <Array as="points">
                <mxPoint x="1110" y="800" />
                <mxPoint x="1110" y="630" />
              </Array>
            </mxGeometry>
          </mxCell>
        </object>
        <object placeholders="1" c4Type="Relationship" c4Technology="REST" c4Description="Получение/сохранение&#xa; информации о клиентах" label="&lt;div style=&quot;text-align: left&quot;&gt;&lt;div style=&quot;text-align: center&quot;&gt;&lt;b&gt;%c4Description%&lt;/b&gt;&lt;/div&gt;&lt;div style=&quot;text-align: center&quot;&gt;[%c4Technology%]&lt;/div&gt;&lt;/div&gt;" id="7ShiXB_MYXrsSbROgCbA-32">
          <mxCell style="endArrow=blockThin;html=1;fontSize=10;fontColor=#404040;strokeWidth=1;endFill=1;strokeColor=#828282;elbow=vertical;metaEdit=1;endSize=14;startSize=14;jumpStyle=arc;jumpSize=16;rounded=0;edgeStyle=orthogonalEdgeStyle;" edge="1" parent="1" source="7ShiXB_MYXrsSbROgCbA-4" target="7ShiXB_MYXrsSbROgCbA-28">
            <mxGeometry width="240" relative="1" as="geometry">
              <mxPoint x="1020" y="810" as="sourcePoint" />
              <mxPoint x="1200" y="640" as="targetPoint" />
              <mxPoint x="-1" as="offset" />
              <Array as="points">
                <mxPoint x="1100" y="570" />
                <mxPoint x="1100" y="570" />
              </Array>
            </mxGeometry>
          </mxCell>
        </object>
        <object placeholders="1" c4Name="Kafka" c4Type="Container" c4Technology="Apache Kafka" c4Description="Брокер сообщений для передачи событий между сервисами" label="&lt;font style=&quot;font-size: 16px&quot;&gt;&lt;b&gt;%c4Name%&lt;/b&gt;&lt;/font&gt;&lt;div&gt;[%c4Type%:&amp;nbsp;%c4Technology%]&lt;/div&gt;&lt;br&gt;&lt;div&gt;&lt;font style=&quot;font-size: 11px&quot;&gt;&lt;font color=&quot;#E6E6E6&quot;&gt;%c4Description%&lt;/font&gt;&lt;/div&gt;" id="7ShiXB_MYXrsSbROgCbA-33">
          <mxCell style="rounded=1;whiteSpace=wrap;html=1;fontSize=11;labelBackgroundColor=none;fillColor=#FFB900;fontColor=#000000;align=center;arcSize=10;strokeColor=#FFA500;metaEdit=1;resizable=0;" vertex="1" parent="1">
            <mxGeometry x="1180" y="1010" width="240" height="120" as="geometry" />
          </mxCell>
        </object>
        <object placeholders="1" c4Type="Relationship" c4Technology="Event-Driven" c4Description="Публикация событий о продуктах и тарифах" label="&lt;div style=&quot;text-align: left&quot;&gt;&lt;div style=&quot;text-align: center&quot;&gt;&lt;b&gt;%c4Description%&lt;/b&gt;&lt;/div&gt;&lt;div style=&quot;text-align: center&quot;&gt;[%c4Technology%]&lt;/div&gt;&lt;/div&gt;" id="7ShiXB_MYXrsSbROgCbA-34">
          <mxCell style="endArrow=blockThin;html=1;fontSize=10;fontColor=#404040;strokeWidth=1;endFill=1;strokeColor=#FF9900;elbow=vertical;metaEdit=1;endSize=14;" edge="1" parent="1" source="7ShiXB_MYXrsSbROgCbA-14" target="7ShiXB_MYXrsSbROgCbA-33">
            <mxGeometry width="240" relative="1" as="geometry" />
          </mxCell>
        </object>
        <object placeholders="1" c4Type="Relationship" c4Technology="Event-Driven" c4Description="Подписка на события о продуктах и тарифах" label="&lt;div style=&quot;text-align: left&quot;&gt;&lt;div style=&quot;text-align: center&quot;&gt;&lt;b&gt;%c4Description%&lt;/b&gt;&lt;/div&gt;&lt;div style=&quot;text-align: center&quot;&gt;[%c4Technology%]&lt;/div&gt;&lt;/div&gt;" id="7ShiXB_MYXrsSbROgCbA-35">
          <mxCell style="endArrow=blockThin;html=1;fontSize=10;fontColor=#404040;strokeWidth=1;endFill=1;strokeColor=#d79b00;elbow=vertical;metaEdit=1;endSize=14;exitX=0.5;exitY=0;exitDx=0;exitDy=0;fillColor=#ffe6cc;edgeStyle=orthogonalEdgeStyle;" edge="1" parent="1" source="7ShiXB_MYXrsSbROgCbA-33" target="7ShiXB_MYXrsSbROgCbA-3">
            <mxGeometry x="-0.3081" y="20" width="240" relative="1" as="geometry">
              <Array as="points">
                <mxPoint x="1300" y="950" />
                <mxPoint x="890" y="950" />
              </Array>
              <mxPoint as="offset" />
            </mxGeometry>
          </mxCell>
        </object>
        <object placeholders="1" c4Type="Relationship" c4Technology="Event-Driven" c4Description="Подписка на события о продуктах и тарифах" label="&lt;div style=&quot;text-align: left&quot;&gt;&lt;div style=&quot;text-align: center&quot;&gt;&lt;b&gt;%c4Description%&lt;/b&gt;&lt;/div&gt;&lt;div style=&quot;text-align: center&quot;&gt;[%c4Technology%]&lt;/div&gt;&lt;/div&gt;" id="7ShiXB_MYXrsSbROgCbA-36">
          <mxCell style="endArrow=blockThin;html=1;fontSize=10;fontColor=#404040;strokeWidth=1;endFill=1;strokeColor=#FF9900;elbow=vertical;metaEdit=1;endSize=14;" edge="1" parent="1" source="7ShiXB_MYXrsSbROgCbA-33" target="7ShiXB_MYXrsSbROgCbA-17">
            <mxGeometry width="240" relative="1" as="geometry" />
          </mxCell>
        </object>
      </root>
    </mxGraphModel>
  </diagram>
</mxfile>
